# xmcd
#
# Track frame offsets:
#	150
#	17221
#	35894
#	64233
#
# Disc length: 1504 seconds
#
# Revision: 1
# Processed by: cddbd v1.5.2PL0 Copyright (c) Steve Scherf et al.
# Submitted via: audiograbber 1.83.01
#
DISCID=3505de04
DTITLE=Nas - Hip Hop is Dead
DYEAR=2006
DGENRE=Hip-Hop
TTITLE0=Hip Hop is Dead (Radio Version)
TTITLE1=Where Y'all at
TTITLE2=Hip Hop is Dead (Instromental)
TTITLE3=Daten-CD
EXTD=
EXTT0=
EXTT1=
EXTT2=
EXTT3=
PLAYORDER=
